# xmcd
#
# Track frame offsets:
#	150
#	15135
#	28637
#	43425
#	63623
#	82290
#	97523
#	117408
#	130079
#	147344
#	165436
#	178827
#	205863
#
# Disc length: 3273 seconds
#
# Revision: 0
# Processed by: cddbd v1.5.1PL0 Copyright (c) Steve Scherf et al.
# Submitted via: audiograbber 1.81.01
#
DISCID=ae0cc70d
DTITLE=ELDORADO - ELDORADO NA MORI
DYEAR=2001
DGENRE=Country
TTITLE0=Odliv huci
TTITLE1=Piratska
TTITLE2=Nedaleko Singapuru
TTITLE3=Albatros
TTITLE4=Umrel stary kormidelnik
TTITLE5=Do dali tam na pobrezi
TTITLE6=Margareta
TTITLE7=Hola-heja-hou!
TTITLE8=Pluj, oblacku
TTITLE9=Hoj, trampove, pirati
TTITLE10=Vesely kapitan
TTITLE11=Hej sup, namornici!
TTITLE12=Datov· Ë·st
EXTD=
EXTT0=
EXTT1=
EXTT2=
EXTT3=
EXTT4=
EXTT5=
EXTT6=
EXTT7=
EXTT8=
EXTT9=
EXTT10=
EXTT11=
EXTT12=
PLAYORDER=
